<mxfile host="app.diagrams.net" agent="Mozilla/5.0 (Windows NT 10.0; Win64; x64) AppleWebKit/537.36 (KHTML, like Gecko) Chrome/137.0.0.0 Safari/537.36" version="27.1.6">
  <diagram name="第 1 页" id="eBL2vpNSO-SFw83EQikt">
    <mxGraphModel dx="1042" dy="562" grid="1" gridSize="10" guides="1" tooltips="1" connect="1" arrows="1" fold="1" page="1" pageScale="1" pageWidth="827" pageHeight="1169" math="0" shadow="0">
      <root>
        <mxCell id="0" />
        <mxCell id="1" parent="0" />
        <mxCell id="XVMjnSvKcHxapfFBS7dv-2" value="二进制程序" style="shape=note;whiteSpace=wrap;html=1;backgroundOutline=1;darkOpacity=0.05;" vertex="1" parent="1">
          <mxGeometry x="180" y="240" width="80" height="100" as="geometry" />
        </mxCell>
        <mxCell id="XVMjnSvKcHxapfFBS7dv-3" value="反编译与语义恢复" style="swimlane;whiteSpace=wrap;html=1;" vertex="1" parent="1">
          <mxGeometry x="340" y="240" width="250" height="100" as="geometry" />
        </mxCell>
        <mxCell id="XVMjnSvKcHxapfFBS7dv-4" value="工具：IDA Pro / Ghidra等&lt;div&gt;输出：类C代码&lt;/div&gt;" style="text;html=1;align=center;verticalAlign=middle;resizable=0;points=[];autosize=1;strokeColor=none;fillColor=none;" vertex="1" parent="XVMjnSvKcHxapfFBS7dv-3">
          <mxGeometry x="45" y="40" width="160" height="40" as="geometry" />
        </mxCell>
      </root>
    </mxGraphModel>
  </diagram>
</mxfile>
